<svg width="27" height="26" viewBox="0 0 27 26" fill="none" xmlns="http://www.w3.org/2000/svg">
<g clip-path="url(#clip0_0_419)">
<path d="M27 13C27 5.82029 20.9558 0 13.5 0C6.04415 0 0 5.82029 0 13C0 19.4886 4.93673 24.8668 11.3906 25.8421V16.7578H7.96289V13H11.3906V10.1359C11.3906 6.87781 13.4061 5.07812 16.4898 5.07812C17.9663 5.07812 19.5117 5.33203 19.5117 5.33203V8.53125H17.8095C16.1325 8.53125 15.6094 9.53342 15.6094 10.5625V13H19.3535L18.755 16.7578H15.6094V25.8421C22.0633 24.8668 27 19.4886 27 13Z" fill="white"/>
</g>
<defs>
<clipPath id="clip0_0_419">
<rect width="27" height="26" fill="white"/>
</clipPath>
</defs>
</svg>
