<svg width="27" height="26" viewBox="0 0 27 26" fill="none" xmlns="http://www.w3.org/2000/svg">
<g clip-path="url(#clip0_0_422)">
<path d="M25.0069 0H1.99313C1.46452 0 0.957557 0.202212 0.583773 0.562152C0.20999 0.922092 0 1.41027 0 1.91931V24.0807C0 24.5897 0.20999 25.0779 0.583773 25.4379C0.957557 25.7978 1.46452 26 1.99313 26H25.0069C25.5355 26 26.0424 25.7978 26.4162 25.4379C26.79 25.0779 27 24.5897 27 24.0807V1.91931C27 1.41027 26.79 0.922092 26.4162 0.562152C26.0424 0.202212 25.5355 0 25.0069 0ZM8.0475 22.1488H3.98813V9.73195H8.0475V22.1488ZM6.015 8.01125C5.55453 8.00875 5.10515 7.87496 4.72358 7.62676C4.342 7.37856 4.04532 7.02708 3.87099 6.61666C3.69665 6.20625 3.65248 5.75531 3.74404 5.32074C3.83559 4.88618 4.05878 4.48747 4.38542 4.17493C4.71207 3.86239 5.12754 3.65004 5.5794 3.56467C6.03126 3.47929 6.49925 3.52473 6.92432 3.69523C7.34939 3.86574 7.71248 4.15368 7.96777 4.52271C8.22306 4.89175 8.35911 5.32533 8.35875 5.76875C8.36309 6.06562 8.30533 6.36029 8.18889 6.63521C8.07245 6.91012 7.89973 7.15964 7.68102 7.36891C7.46231 7.57817 7.20208 7.74289 6.91585 7.85325C6.62962 7.9636 6.32325 8.01734 6.015 8.01125ZM23.01 22.1596H18.9525V15.3761C18.9525 13.3756 18.0694 12.7581 16.9294 12.7581C15.7256 12.7581 14.5444 13.6319 14.5444 15.4267V22.1596H10.485V9.74097H14.3888V11.4617H14.4413C14.8331 10.6979 16.2056 9.3925 18.3 9.3925C20.565 9.3925 23.0119 10.6871 23.0119 14.4788L23.01 22.1596Z" fill="white"/>
</g>
<defs>
<clipPath id="clip0_0_422">
<rect width="27" height="26" fill="white"/>
</clipPath>
</defs>
</svg>
