<svg width="25" height="25" viewBox="0 0 25 25" fill="none" xmlns="http://www.w3.org/2000/svg">
<g clip-path="url(#clip0_0_382)">
<path fill-rule="evenodd" clip-rule="evenodd" d="M20.2477 5.09209C20.499 4.98634 20.774 4.94986 21.0441 4.98647C21.3143 5.02307 21.5697 5.13141 21.7837 5.3002C21.9978 5.469 22.1627 5.69209 22.2613 5.94625C22.3599 6.2004 22.3885 6.47634 22.3443 6.74533L20.0383 20.7328C19.8146 22.082 18.3342 22.8558 17.0968 22.1837C16.0618 21.6214 14.5244 20.7552 13.1417 19.8513C12.4503 19.3988 10.3324 17.9499 10.5927 16.919C10.8163 16.0374 14.375 12.7249 16.4085 10.7554C17.2066 9.98165 16.8426 9.5353 15.9001 10.247C13.5585 12.0141 9.80162 14.7014 8.55915 15.4579C7.46309 16.1249 6.89167 16.2387 6.20841 16.1249C4.96187 15.9175 3.80583 15.5962 2.86228 15.2047C1.58727 14.676 1.6493 12.9231 2.86126 12.4127L20.2477 5.09209Z" fill="white"/>
</g>
<defs>
<clipPath id="clip0_0_382">
<rect width="24.4021" height="24.4021" fill="white" transform="translate(0.139404 0.587891)"/>
</clipPath>
</defs>
</svg>
