<svg width="22" height="21" viewBox="0 0 22 21" fill="none" xmlns="http://www.w3.org/2000/svg">
<g clip-path="url(#clip0_0_379)">
<path d="M7.20911 19.0504C14.8827 19.0504 19.0799 12.6928 19.0799 7.1796C19.0799 6.99902 19.0799 6.81926 19.0677 6.64031C19.8842 6.04971 20.5891 5.31844 21.1492 4.48073C20.3878 4.81829 19.58 5.03957 18.7529 5.13714C19.6239 4.6158 20.2758 3.79569 20.5871 2.82952C19.7682 3.31554 18.8722 3.65803 17.9379 3.84221C17.3088 3.17334 16.4769 2.73042 15.5708 2.58202C14.6647 2.43361 13.7349 2.58797 12.9253 3.02123C12.1158 3.45448 11.4716 4.14247 11.0925 4.97872C10.7133 5.81498 10.6203 6.75289 10.8279 7.6473C9.16922 7.5641 7.54654 7.13302 6.06521 6.38206C4.58389 5.6311 3.27703 4.57703 2.22947 3.28828C1.69595 4.20674 1.53254 5.29402 1.77252 6.32873C2.0125 7.36344 2.63781 8.26779 3.52115 8.85765C2.85717 8.83819 2.20765 8.65907 1.62755 8.33544V8.38831C1.62781 9.35156 1.96126 10.2851 2.57133 11.0305C3.18139 11.7759 4.03053 12.2874 4.9747 12.4781C4.36048 12.6456 3.71602 12.6701 3.09086 12.5497C3.35757 13.3786 3.87663 14.1035 4.57549 14.623C5.27434 15.1424 6.11806 15.4305 6.98868 15.447C6.12366 16.1269 5.13307 16.6297 4.07358 16.9264C3.01409 17.2231 1.90649 17.308 0.814148 17.1763C2.72211 18.4007 4.9421 19.0501 7.20911 19.0471" fill="white"/>
</g>
<defs>
<clipPath id="clip0_0_379">
<rect width="20.3351" height="20.3351" fill="white" transform="translate(0.814148 0.621094)"/>
</clipPath>
</defs>
</svg>
