<svg width="27" height="26" viewBox="0 0 27 26" fill="none" xmlns="http://www.w3.org/2000/svg">
<path d="M26.7311 7.79995C26.7311 7.79995 26.4674 6.00737 25.6553 5.22026C24.627 4.18433 23.4773 4.17925 22.95 4.11831C19.1742 3.85425 13.5053 3.85425 13.5053 3.85425H13.4947C13.4947 3.85425 7.82578 3.85425 4.05 4.11831C3.52266 4.17925 2.37305 4.18433 1.34473 5.22026C0.532617 6.00737 0.274219 7.79995 0.274219 7.79995C0.274219 7.79995 0 9.90737 0 12.0097V13.98C0 16.0824 0.268945 18.1898 0.268945 18.1898C0.268945 18.1898 0.532617 19.9824 1.33945 20.7695C2.36777 21.8054 3.71777 21.7699 4.31895 21.8816C6.48105 22.0796 13.5 22.1406 13.5 22.1406C13.5 22.1406 19.1742 22.1304 22.95 21.8714C23.4773 21.8105 24.627 21.8054 25.6553 20.7695C26.4674 19.9824 26.7311 18.1898 26.7311 18.1898C26.7311 18.1898 27 16.0875 27 13.98V12.0097C27 9.90737 26.7311 7.79995 26.7311 7.79995ZM10.7104 16.3718V9.0644L18.0035 12.7308L10.7104 16.3718Z" fill="white"/>
</svg>
